STARTFONT 2.1
FONT -FontForge-FreeSans-Medium-R-Normal-Sans-20-140-100-100-P-105-ISO10646-1
SIZE 14 100 100
FONTBOUNDINGBOX 19 19 0 -4
COMMENT "Generated by fontforge, http://fontforge.sourceforge.net"
COMMENT "Copyleft 2002, 2003, 2005, 2008, 2009, 2010 Free Software Foundation."
STARTPROPERTIES 40
FOUNDRY "FontForge"
FAMILY_NAME "FreeSans"
WEIGHT_NAME "Medium"
SLANT "R"
SETWIDTH_NAME "Normal"
ADD_STYLE_NAME "Sans"
PIXEL_SIZE 20
POINT_SIZE 140
RESOLUTION_X 100
RESOLUTION_Y 100
SPACING "P"
AVERAGE_WIDTH 105
CHARSET_REGISTRY "ISO10646"
CHARSET_ENCODING "1"
FONTNAME_REGISTRY ""
CHARSET_COLLECTIONS "ASCII ISOLatin1Encoding ISO8859-2 ISO8859-5 ISO8859-7 ISO8859-9 ISO8859-8 ISO8859-4 ISO10646-1"
FONT_NAME "FreeSans"
FACE_NAME "Free Sans"
COPYRIGHT "Copyleft 2002, 2003, 2005, 2008, 2009, 2010 Free Software Foundation."
FONT_VERSION "$Revision: 1.344 $"
FONT_ASCENT 16
FONT_DESCENT 4
UNDERLINE_POSITION -4
UNDERLINE_THICKNESS 1
X_HEIGHT 9
CAP_HEIGHT 14
RAW_ASCENT 800
RAW_DESCENT 200
NORM_SPACE 6
RELATIVE_WEIGHT 40
RELATIVE_SETWIDTH 50
SUPERSCRIPT_X -3
SUPERSCRIPT_Y 9
SUPERSCRIPT_SIZE 13
SUBSCRIPT_X 0
SUBSCRIPT_Y 2
SUBSCRIPT_SIZE 13
FIGURE_WIDTH 11
AVG_LOWERCASE_WIDTH 97
AVG_UPPERCASE_WIDTH 133
ENDPROPERTIES
CHARS 96
STARTCHAR space
ENCODING 32
SWIDTH 278 0
DWIDTH 6 0
BBX 1 1 0 0
BITMAP
00
ENDCHAR
STARTCHAR exclam
ENCODING 33
SWIDTH 278 0
DWIDTH 6 0
BBX 2 15 2 0
BITMAP
C0
C0
C0
C0
C0
C0
C0
40
40
40
40
40
00
C0
C0
ENDCHAR
STARTCHAR quotedbl
ENCODING 34
SWIDTH 355 0
DWIDTH 7 0
BBX 5 5 1 9
BITMAP
D8
D8
D8
C8
08
ENDCHAR
STARTCHAR numbersign
ENCODING 35
SWIDTH 556 0
DWIDTH 11 0
BBX 11 14 0 0
BITMAP
0CC0
0880
0880
0880
7FE0
1980
1980
1100
1100
FFC0
3300
3300
2200
2200
ENDCHAR
STARTCHAR dollar
ENCODING 36
SWIDTH 556 0
DWIDTH 11 0
BBX 9 18 1 -3
BITMAP
0800
7E00
EB00
C980
C980
C800
E800
7E00
1F00
0980
0880
8880
C980
C980
7F00
0800
0800
0800
ENDCHAR
STARTCHAR percent
ENCODING 37
SWIDTH 889 0
DWIDTH 18 0
BBX 16 14 1 0
BITMAP
3010
FC30
8420
8460
8440
CC80
7880
0100
033E
0223
0661
0461
0C23
083E
ENDCHAR
STARTCHAR ampersand
ENCODING 38
SWIDTH 667 0
DWIDTH 13 0
BBX 11 14 1 0
BITMAP
1E00
3300
2100
2100
3300
1E00
1C00
7C40
6640
C3C0
C1C0
C1C0
63E0
7E60
ENDCHAR
STARTCHAR quotesingle
ENCODING 39
SWIDTH 191 0
DWIDTH 4 0
BBX 2 5 1 9
BITMAP
C0
C0
C0
C0
80
ENDCHAR
STARTCHAR parenleft
ENCODING 40
SWIDTH 333 0
DWIDTH 7 0
BBX 5 19 1 -4
BITMAP
08
10
30
20
60
60
40
40
40
C0
C0
40
40
40
60
20
20
10
10
ENDCHAR
STARTCHAR parenright
ENCODING 41
SWIDTH 333 0
DWIDTH 7 0
BBX 4 19 1 -4
BITMAP
80
C0
40
60
20
20
30
30
30
30
30
30
30
30
20
20
60
40
80
ENDCHAR
STARTCHAR asterisk
ENCODING 42
SWIDTH 389 0
DWIDTH 8 0
BBX 6 6 1 9
BITMAP
20
20
EC
70
70
48
ENDCHAR
STARTCHAR plus
ENCODING 43
SWIDTH 584 0
DWIDTH 12 0
BBX 10 9 1 0
BITMAP
0C00
0C00
0C00
0C00
FFC0
0C00
0C00
0C00
0C00
ENDCHAR
STARTCHAR comma
ENCODING 44
SWIDTH 278 0
DWIDTH 6 0
BBX 2 5 2 -3
BITMAP
C0
C0
40
40
80
ENDCHAR
STARTCHAR hyphen
ENCODING 45
SWIDTH 333 0
DWIDTH 7 0
BBX 5 1 1 5
BITMAP
F8
ENDCHAR
STARTCHAR period
ENCODING 46
SWIDTH 278 0
DWIDTH 6 0
BBX 2 2 2 0
BITMAP
C0
C0
ENDCHAR
STARTCHAR slash
ENCODING 47
SWIDTH 278 0
DWIDTH 6 0
BBX 6 15 0 0
BITMAP
04
08
08
08
10
10
10
20
20
20
40
40
40
C0
80
ENDCHAR
STARTCHAR zero
ENCODING 48
SWIDTH 556 0
DWIDTH 11 0
BBX 9 14 1 0
BITMAP
3E00
7700
6300
C180
C180
C180
C180
C180
C180
C180
C180
4100
6300
3E00
ENDCHAR
STARTCHAR one
ENCODING 49
SWIDTH 556 0
DWIDTH 11 0
BBX 5 14 2 0
BITMAP
08
18
78
F8
18
18
18
18
18
18
18
18
18
18
ENDCHAR
STARTCHAR two
ENCODING 50
SWIDTH 556 0
DWIDTH 11 0
BBX 9 14 1 0
BITMAP
3E00
7300
C180
C180
C180
0180
0300
0E00
1C00
7000
6000
C000
FF80
FF80
ENDCHAR
STARTCHAR three
ENCODING 51
SWIDTH 556 0
DWIDTH 11 0
BBX 9 14 1 0
BITMAP
3E00
6700
C180
C180
0180
0300
1E00
1700
0180
0180
8180
C180
E300
7F00
ENDCHAR
STARTCHAR four
ENCODING 52
SWIDTH 556 0
DWIDTH 11 0
BBX 9 14 1 0
BITMAP
0200
0600
0E00
1A00
1200
3200
6200
C200
8200
FF80
FF80
0200
0200
0200
ENDCHAR
STARTCHAR five
ENCODING 53
SWIDTH 556 0
DWIDTH 11 0
BBX 9 14 1 0
BITMAP
7F80
7F80
4000
4000
4000
FE00
E300
C180
0180
0180
0180
C180
E300
7E00
ENDCHAR
STARTCHAR six
ENCODING 54
SWIDTH 556 0
DWIDTH 11 0
BBX 9 14 1 0
BITMAP
3E00
7300
6180
C180
C000
DE00
FF00
E180
C180
C180
C180
C180
6300
3F00
ENDCHAR
STARTCHAR seven
ENCODING 55
SWIDTH 556 0
DWIDTH 11 0
BBX 9 14 1 0
BITMAP
FF80
FF80
0180
0300
0200
0600
0C00
0C00
1800
1800
1000
3000
3000
3000
ENDCHAR
STARTCHAR eight
ENCODING 56
SWIDTH 556 0
DWIDTH 11 0
BBX 9 14 1 0
BITMAP
3E00
7700
C180
C180
C180
6300
3E00
6300
C180
C180
C180
C180
E380
7F00
ENDCHAR
STARTCHAR nine
ENCODING 57
SWIDTH 556 0
DWIDTH 11 0
BBX 9 14 1 0
BITMAP
3E00
6700
C100
C180
C180
C180
C180
7780
3D80
0180
0180
C100
6300
7E00
ENDCHAR
STARTCHAR colon
ENCODING 58
SWIDTH 278 0
DWIDTH 6 0
BBX 2 10 2 0
BITMAP
C0
C0
00
00
00
00
00
00
C0
C0
ENDCHAR
STARTCHAR semicolon
ENCODING 59
SWIDTH 278 0
DWIDTH 6 0
BBX 2 13 2 -3
BITMAP
C0
C0
00
00
00
00
00
00
C0
C0
40
40
C0
ENDCHAR
STARTCHAR less
ENCODING 60
SWIDTH 584 0
DWIDTH 12 0
BBX 10 9 1 0
BITMAP
01C0
0780
1C00
F000
C000
7800
1E00
0380
00C0
ENDCHAR
STARTCHAR equal
ENCODING 61
SWIDTH 584 0
DWIDTH 12 0
BBX 10 5 1 2
BITMAP
FFC0
0000
0000
FFC0
FFC0
ENDCHAR
STARTCHAR greater
ENCODING 62
SWIDTH 584 0
DWIDTH 12 0
BBX 10 9 1 0
BITMAP
C000
7800
1E00
0380
00C0
0780
1C00
F000
C000
ENDCHAR
STARTCHAR question
ENCODING 63
SWIDTH 556 0
DWIDTH 11 0
BBX 8 15 2 0
BITMAP
3C
7E
C3
83
83
03
06
0C
18
18
18
00
00
18
18
ENDCHAR
STARTCHAR at
ENCODING 64
SWIDTH 1015 0
DWIDTH 20 0
BBX 18 18 1 -3
BITMAP
01F000
07FC00
1C0700
300380
600180
61ECC0
C318C0
C618C0
8418C0
8C18C0
8C3080
CC3180
C7FF00
639C00
700000
380000
0FF800
03F000
ENDCHAR
STARTCHAR A
ENCODING 65
SWIDTH 667 0
DWIDTH 13 0
BBX 12 15 1 0
BITMAP
0600
0E00
0F00
1B00
1B00
1980
3180
3180
30C0
7FC0
7FC0
6060
C060
C070
8030
ENDCHAR
STARTCHAR B
ENCODING 66
SWIDTH 667 0
DWIDTH 13 0
BBX 10 15 2 0
BITMAP
FE00
FF80
8180
80C0
80C0
80C0
8180
FF00
81C0
80C0
8040
8040
80C0
FFC0
FF00
ENDCHAR
STARTCHAR C
ENCODING 67
SWIDTH 722 0
DWIDTH 14 0
BBX 12 15 1 0
BITMAP
0F80
1FE0
3060
6030
4030
C000
C000
C000
C000
C000
C030
6030
6030
38E0
1FC0
ENDCHAR
STARTCHAR D
ENCODING 68
SWIDTH 722 0
DWIDTH 14 0
BBX 11 15 2 0
BITMAP
FC00
FF80
C1C0
C0C0
C060
C060
C060
C060
C060
C060
C060
C060
C0C0
FF80
FF00
ENDCHAR
STARTCHAR E
ENCODING 69
SWIDTH 667 0
DWIDTH 13 0
BBX 10 15 2 0
BITMAP
FFC0
FFC0
C000
C000
C000
C000
C000
FFC0
C000
C000
C000
C000
C000
FFC0
FFC0
ENDCHAR
STARTCHAR F
ENCODING 70
SWIDTH 611 0
DWIDTH 12 0
BBX 10 15 2 0
BITMAP
FFC0
FFC0
C000
C000
C000
C000
C000
FF80
C000
C000
C000
C000
C000
C000
C000
ENDCHAR
STARTCHAR G
ENCODING 71
SWIDTH 778 0
DWIDTH 16 0
BBX 13 15 1 0
BITMAP
0780
1FE0
3070
6018
C018
C000
C000
C1F8
C1F8
C008
C018
6018
6038
3868
1FC8
ENDCHAR
STARTCHAR H
ENCODING 72
SWIDTH 722 0
DWIDTH 14 0
BBX 11 15 2 0
BITMAP
C060
C060
C060
C060
C060
C060
C060
FFE0
C060
C060
C060
C060
C060
C060
C060
ENDCHAR
STARTCHAR I
ENCODING 73
SWIDTH 278 0
DWIDTH 6 0
BBX 2 15 2 0
BITMAP
C0
C0
C0
C0
C0
C0
C0
C0
C0
C0
C0
C0
C0
C0
C0
ENDCHAR
STARTCHAR J
ENCODING 74
SWIDTH 500 0
DWIDTH 10 0
BBX 9 15 0 0
BITMAP
0180
0180
0180
0180
0180
0180
0180
0180
0180
0180
C180
C180
C300
6300
3E00
ENDCHAR
STARTCHAR K
ENCODING 75
SWIDTH 667 0
DWIDTH 13 0
BBX 11 15 2 0
BITMAP
8060
80C0
8180
8300
8600
8C00
9800
BC00
EE00
C600
8300
8180
8180
80C0
8060
ENDCHAR
STARTCHAR L
ENCODING 76
SWIDTH 556 0
DWIDTH 11 0
BBX 9 15 2 0
BITMAP
8000
8000
8000
8000
8000
8000
8000
8000
8000
8000
8000
8000
8000
FF80
FF80
ENDCHAR
STARTCHAR M
ENCODING 77
SWIDTH 833 0
DWIDTH 17 0
BBX 14 15 1 0
BITMAP
E00C
E01C
F01C
F01C
D03C
D83C
C82C
C86C
CC6C
C44C
C4CC
C6CC
C28C
C38C
C38C
ENDCHAR
STARTCHAR N
ENCODING 78
SWIDTH 722 0
DWIDTH 14 0
BBX 11 15 2 0
BITMAP
C060
C060
E060
F060
B060
9860
9860
8C60
8660
8660
8360
81E0
81E0
80E0
80E0
ENDCHAR
STARTCHAR O
ENCODING 79
SWIDTH 778 0
DWIDTH 16 0
BBX 14 15 1 0
BITMAP
0780
1FE0
3070
6018
C018
C00C
C00C
C00C
C00C
C00C
C008
E018
6038
3870
1FC0
ENDCHAR
STARTCHAR P
ENCODING 80
SWIDTH 667 0
DWIDTH 13 0
BBX 10 15 2 0
BITMAP
FE00
FF80
C1C0
C0C0
C0C0
C0C0
C0C0
FF80
FF00
C000
C000
C000
C000
C000
C000
ENDCHAR
STARTCHAR Q
ENCODING 81
SWIDTH 778 0
DWIDTH 16 0
BBX 14 16 1 -1
BITMAP
0780
1FE0
3070
6018
C018
C00C
C00C
C00C
C00C
C00C
C008
E098
60F8
3870
1FF8
0008
ENDCHAR
STARTCHAR R
ENCODING 82
SWIDTH 722 0
DWIDTH 14 0
BBX 12 15 2 0
BITMAP
FF00
FFC0
C0E0
C060
C060
C060
C0C0
FF80
FFC0
C0C0
C060
C060
C060
C060
C070
ENDCHAR
STARTCHAR S
ENCODING 83
SWIDTH 667 0
DWIDTH 13 0
BBX 11 15 1 0
BITMAP
1F00
3FC0
60C0
C060
C060
6000
7800
3F80
03C0
0060
C060
C020
C060
70E0
3FC0
ENDCHAR
STARTCHAR T
ENCODING 84
SWIDTH 611 0
DWIDTH 12 0
BBX 12 15 0 0
BITMAP
FFF0
FFF0
0600
0600
0600
0600
0600
0600
0600
0600
0600
0600
0600
0600
0600
ENDCHAR
STARTCHAR U
ENCODING 85
SWIDTH 722 0
DWIDTH 14 0
BBX 11 15 2 0
BITMAP
C060
C060
C060
C060
C060
C060
C060
C060
C060
C060
C060
C060
C0E0
61C0
3F80
ENDCHAR
STARTCHAR V
ENCODING 86
SWIDTH 667 0
DWIDTH 13 0
BBX 12 15 1 0
BITMAP
C030
C030
C060
6060
6040
60C0
30C0
3080
3180
1980
1900
0B00
0F00
0E00
0600
ENDCHAR
STARTCHAR W
ENCODING 87
SWIDTH 944 0
DWIDTH 19 0
BBX 19 15 0 0
BITMAP
E0E0E0
60E0C0
60E0C0
60A0C0
61B0C0
31B180
31B180
311180
131980
1B1B00
1A0B00
1E0F00
0E0F00
0E0E00
0C0600
ENDCHAR
STARTCHAR X
ENCODING 88
SWIDTH 667 0
DWIDTH 13 0
BBX 12 15 1 0
BITMAP
C070
E060
60C0
31C0
1980
1B00
0F00
0600
0E00
1B00
1980
31C0
60C0
E060
C070
ENDCHAR
STARTCHAR Y
ENCODING 89
SWIDTH 667 0
DWIDTH 13 0
BBX 13 15 0 0
BITMAP
E018
6038
3030
3060
1860
1CC0
0D80
0780
0700
0300
0300
0300
0300
0300
0300
ENDCHAR
STARTCHAR Z
ENCODING 90
SWIDTH 611 0
DWIDTH 12 0
BBX 11 15 1 0
BITMAP
FFE0
FFE0
00C0
01C0
0380
0300
0600
0C00
1C00
1800
3000
6000
E000
FFE0
FFE0
ENDCHAR
STARTCHAR bracketleft
ENCODING 91
SWIDTH 278 0
DWIDTH 6 0
BBX 4 19 1 -4
BITMAP
F0
F0
C0
C0
C0
C0
C0
C0
C0
C0
C0
C0
C0
C0
C0
C0
C0
C0
F0
ENDCHAR
STARTCHAR backslash
ENCODING 92
SWIDTH 278 0
DWIDTH 6 0
BBX 5 15 0 0
BITMAP
80
80
C0
40
40
60
20
20
20
10
10
10
08
08
08
ENDCHAR
STARTCHAR bracketright
ENCODING 93
SWIDTH 277 0
DWIDTH 6 0
BBX 4 19 0 -4
BITMAP
F0
F0
30
30
30
30
30
30
30
30
30
30
30
30
30
30
30
30
F0
ENDCHAR
STARTCHAR asciicircum
ENCODING 94
SWIDTH 469 0
DWIDTH 9 0
BBX 7 7 1 7
BITMAP
18
38
28
64
44
46
C2
ENDCHAR
STARTCHAR underscore
ENCODING 95
SWIDTH 556 0
DWIDTH 11 0
BBX 12 1 0 -4
BITMAP
FFF0
ENDCHAR
STARTCHAR grave
ENCODING 96
SWIDTH 333 0
DWIDTH 7 0
BBX 3 3 1 12
BITMAP
C0
60
20
ENDCHAR
STARTCHAR a
ENCODING 97
SWIDTH 556 0
DWIDTH 11 0
BBX 10 11 1 0
BITMAP
3E00
7F00
C100
C100
0300
3F00
F100
C100
C100
C300
7DC0
ENDCHAR
STARTCHAR b
ENCODING 98
SWIDTH 556 0
DWIDTH 11 0
BBX 9 15 1 0
BITMAP
C000
C000
C000
C000
DE00
FF00
E180
C180
C080
C080
C080
C080
C180
E300
FF00
ENDCHAR
STARTCHAR c
ENCODING 99
SWIDTH 500 0
DWIDTH 10 0
BBX 9 11 1 0
BITMAP
1C00
7E00
C300
C100
8000
8000
8000
C180
C100
6300
7E00
ENDCHAR
STARTCHAR d
ENCODING 100
SWIDTH 556 0
DWIDTH 11 0
BBX 9 15 1 0
BITMAP
0180
0180
0180
0180
3D80
7F80
C380
C180
8180
8180
8180
8180
C180
E380
7F80
ENDCHAR
STARTCHAR e
ENCODING 101
SWIDTH 556 0
DWIDTH 11 0
BBX 9 11 1 0
BITMAP
1C00
7F00
6380
C180
C180
FF80
C000
C000
C180
6300
3F00
ENDCHAR
STARTCHAR f
ENCODING 102
SWIDTH 278 0
DWIDTH 6 0
BBX 5 15 0 0
BITMAP
18
38
20
20
20
F8
20
20
20
20
20
20
20
20
20
ENDCHAR
STARTCHAR g
ENCODING 103
SWIDTH 556 0
DWIDTH 11 0
BBX 9 15 1 -4
BITMAP
1800
7F80
C380
C180
8180
8180
8180
8180
C180
E380
7D80
0180
C100
C300
7E00
ENDCHAR
STARTCHAR h
ENCODING 104
SWIDTH 556 0
DWIDTH 11 0
BBX 9 15 1 0
BITMAP
C000
C000
C000
C000
CE00
FF00
E180
C180
C180
C180
C180
C180
C180
C180
C180
ENDCHAR
STARTCHAR i
ENCODING 105
SWIDTH 222 0
DWIDTH 4 0
BBX 2 15 1 0
BITMAP
C0
C0
C0
00
00
C0
C0
C0
C0
C0
C0
C0
C0
C0
C0
ENDCHAR
STARTCHAR j
ENCODING 106
SWIDTH 222 0
DWIDTH 4 0
BBX 3 19 0 -4
BITMAP
60
60
60
00
00
60
60
60
60
60
60
60
60
60
60
60
60
60
E0
ENDCHAR
STARTCHAR k
ENCODING 107
SWIDTH 500 0
DWIDTH 10 0
BBX 9 15 1 0
BITMAP
C000
C000
C000
C000
C000
C700
CC00
D800
F800
EC00
CC00
C600
C600
C300
C180
ENDCHAR
STARTCHAR l
ENCODING 108
SWIDTH 222 0
DWIDTH 4 0
BBX 2 15 1 0
BITMAP
C0
C0
C0
C0
C0
C0
C0
C0
C0
C0
C0
C0
C0
C0
C0
ENDCHAR
STARTCHAR m
ENCODING 109
SWIDTH 833 0
DWIDTH 17 0
BBX 14 11 1 0
BITMAP
0E38
FFFC
E38C
C304
C304
C304
C304
C304
C304
C304
C304
ENDCHAR
STARTCHAR n
ENCODING 110
SWIDTH 556 0
DWIDTH 11 0
BBX 9 11 1 0
BITMAP
0E00
DF00
E180
C180
C180
C180
C180
C180
C180
C180
C180
ENDCHAR
STARTCHAR o
ENCODING 111
SWIDTH 556 0
DWIDTH 11 0
BBX 9 11 1 0
BITMAP
1C00
7F00
E300
C180
C180
8180
8180
C180
C180
6300
7E00
ENDCHAR
STARTCHAR p
ENCODING 112
SWIDTH 556 0
DWIDTH 11 0
BBX 9 15 1 -4
BITMAP
1E00
FF00
E180
C180
C080
C080
C080
C080
C180
E380
FF00
C000
C000
C000
C000
ENDCHAR
STARTCHAR q
ENCODING 113
SWIDTH 556 0
DWIDTH 11 0
BBX 9 15 1 -4
BITMAP
3C00
7F80
C380
C180
8180
8180
8180
8180
C180
E380
7F80
0180
0180
0180
0180
ENDCHAR
STARTCHAR r
ENCODING 114
SWIDTH 333 0
DWIDTH 7 0
BBX 5 11 1 0
BITMAP
08
D8
E0
C0
C0
C0
C0
C0
C0
C0
C0
ENDCHAR
STARTCHAR s
ENCODING 115
SWIDTH 500 0
DWIDTH 10 0
BBX 8 11 1 0
BITMAP
3C
7E
C3
C0
E0
7C
1F
03
C3
C3
7E
ENDCHAR
STARTCHAR t
ENCODING 116
SWIDTH 278 0
DWIDTH 6 0
BBX 5 13 0 0
BITMAP
20
20
20
F8
20
20
20
20
20
20
20
20
38
ENDCHAR
STARTCHAR u
ENCODING 117
SWIDTH 556 0
DWIDTH 11 0
BBX 9 10 1 0
BITMAP
C180
C180
C180
C180
C180
C180
C180
C180
E380
7D80
ENDCHAR
STARTCHAR v
ENCODING 118
SWIDTH 500 0
DWIDTH 10 0
BBX 8 10 1 0
BITMAP
83
C3
C3
46
66
64
2C
3C
38
18
ENDCHAR
STARTCHAR w
ENCODING 119
SWIDTH 722 0
DWIDTH 14 0
BBX 14 10 0 0
BITMAP
C30C
438C
6788
6798
2498
34D0
3CF0
3C70
1870
1860
ENDCHAR
STARTCHAR x
ENCODING 120
SWIDTH 500 0
DWIDTH 10 0
BBX 8 10 1 0
BITMAP
C3
66
24
3C
18
38
3C
66
C2
C3
ENDCHAR
STARTCHAR y
ENCODING 121
SWIDTH 500 0
DWIDTH 10 0
BBX 8 14 1 -4
BITMAP
83
C3
C2
46
66
64
2C
3C
38
18
18
30
30
E0
ENDCHAR
STARTCHAR z
ENCODING 122
SWIDTH 500 0
DWIDTH 10 0
BBX 8 10 1 0
BITMAP
FF
06
06
0C
18
30
60
C0
C0
FF
ENDCHAR
STARTCHAR braceleft
ENCODING 123
SWIDTH 334 0
DWIDTH 7 0
BBX 5 19 1 -4
BITMAP
18
38
60
60
60
60
60
60
60
C0
C0
60
60
60
60
60
60
60
38
ENDCHAR
STARTCHAR bar
ENCODING 124
SWIDTH 260 0
DWIDTH 5 0
BBX 1 19 2 -4
BITMAP
80
80
80
80
80
80
80
80
80
80
80
80
80
80
80
80
80
80
80
ENDCHAR
STARTCHAR braceright
ENCODING 125
SWIDTH 334 0
DWIDTH 7 0
BBX 4 19 1 -4
BITMAP
80
C0
60
60
60
60
60
60
60
30
30
60
60
60
60
60
60
60
C0
ENDCHAR
STARTCHAR asciitilde
ENCODING 126
SWIDTH 584 0
DWIDTH 12 0
BBX 8 4 2 5
BITMAP
60
F1
9F
06
ENDCHAR
STARTCHAR degree
ENCODING 176
SWIDTH 606 0
DWIDTH 12 0
BBX 6 6 3 8
BITMAP
30
68
84
84
C4
78
ENDCHAR
ENDFONT
